<?xml version="1.0" encoding="UTF-8"?>
<svg width="256pt" xmlns:xlink="http://www.w3.org/1999/xlink" xmlns="http://www.w3.org/2000/svg" height="174pt" viewBox="0 0 256 174" >
 <g transform="translate(14.2939, 7.30762)" style="fill:none; stroke:#161413; stroke-width:0.996264; stroke-linecap:butt; stroke-linejoin:miter; stroke-dasharray:none;" >
  <path d="M226.771 0 C226.771 0 0 85.0391 0 85.0391 " />
 </g>
 <g transform="translate(99.333, 7.30762)" style="fill:none; stroke:#161413; stroke-width:0.996264; stroke-linecap:butt; stroke-linejoin:miter; stroke-dasharray:none;" >
  <path d="M141.732 0 C141.732 0 0 85.0391 0 85.0391 " />
 </g>
 <g transform="translate(14.2939, 92.3467)" style="fill:none; stroke:#161413; stroke-width:0.996264; stroke-linecap:butt; stroke-linejoin:miter; stroke-dasharray:none;" >
  <path d="M0 0 C0 0 85.0391 0 85.0391 0 " />
 </g>
 <g transform="translate(56.8135, 92.3467)" style="fill:none; stroke:#161413; stroke-width:0.249066; stroke-linecap:butt; stroke-linejoin:miter; stroke-dasharray:none;" >
  <path d="M42.5195 0 C42.5195 0 0 73.6473 0 73.6473 " />
 </g>
 <g transform="translate(14.2939, 92.3467)" style="fill:none; stroke:#161413; stroke-width:0.249066; stroke-linecap:butt; stroke-linejoin:miter; stroke-dasharray:none;" >
  <path d="M42.5196 73.6473 C42.5196 73.6473 0 0 0 0 " />
 </g>
 <g transform="translate(85.6416, 78.1738)" style="fill:none; stroke:#161413; stroke-width:0.249066; stroke-linecap:butt; stroke-linejoin:miter; stroke-dasharray:none;" >
  <path d="M6.8457 11.8575 C6.8457 11.8575 13.6914 14.1729 13.6914 14.1729 C13.6914 14.1729 10.8564 0 10.8564 0 C10.8564 0 0 9.541 0 9.541 C0 9.541 6.8457 11.8575 6.8457 11.8575 " />
 </g>
 <g transform="translate(96.498, 7.30762)" style="fill:none; stroke:#161413; stroke-width:0.249066; stroke-linecap:butt; stroke-linejoin:miter; stroke-dasharray:none;" >
  <path d="M144.567 0 C144.567 0 0 70.8662 0 70.8662 " />
 </g>
 <g transform="translate(14.2939, 78.1738)" style="fill:none; stroke:#161413; stroke-width:0.249066; stroke-linecap:butt; stroke-linejoin:miter; stroke-dasharray:none;" >
  <path d="M0 14.1729 C0 14.1729 82.2041 0 82.2041 0 " />
 </g>
 <g transform="translate(56.8135, 87.7148)" style="fill:none; stroke:#161413; stroke-width:0.249066; stroke-linecap:butt; stroke-linejoin:miter; stroke-dasharray:none;" >
  <path d="M28.8281 0 C28.8281 0 0 78.2792 0 78.2792 " />
 </g>
 <g transform="translate(247.099, 3.61719)" style="fill:#161413; fill-rule:evenodd; stroke:none; stroke-width:0.249066; stroke-linecap:butt; stroke-linejoin:miter; stroke-dasharray:none;" >
  <path d="M1.434 5.9873 C1.036 6.65431 0.647 6.79391 0.209 6.82421 C0.089 6.83401 0 6.83401 0 7.02341 C0 7.08301 0.049 7.13281 0.13 7.13281 C0.13 7.13281 1.982 7.13281 1.982 7.13281 C2.042 7.13281 2.171 7.13281 2.171 6.94331 C2.171 6.83401 2.082 6.82421 2.012 6.82421 C1.783 6.80371 1.544 6.72461 1.544 6.47561 C1.544 6.35547 1.604 6.24609 1.683 6.10644 C1.754 5.9873 1.763 5.9873 2.44 4.83105 C2.44 4.83105 4.941 4.83105 4.941 4.83105 C4.962 5.04101 5.1 6.39551 5.1 6.49511 C5.1 6.79391 4.583 6.82421 4.383 6.82421 C4.244 6.82421 4.144 6.82421 4.144 7.02341 C4.144 7.13281 4.263 7.13281 4.284 7.13281 C4.284 7.13281 6.655 7.13281 6.655 7.13281 C6.714 7.13281 6.834 7.13281 6.834 6.93361 C6.834 6.82421 6.734 6.82421 6.605 6.82421 C5.987 6.82421 5.987 6.75391 5.958 6.46481 C5.958 6.46481 5.349 0.23828 5.349 0.23828 C5.33 0.03906 5.33 0 5.161 0 C5.001 0 4.962 0.06933 4.901 0.16894 C4.901 0.16894 1.434 5.9873 1.434 5.9873 Z M2.63 4.52246 C2.63 4.52246 4.592 1.23535 4.592 1.23535 C4.592 1.23535 4.912 4.52246 4.912 4.52246 C4.912 4.52246 2.63 4.52246 2.63 4.52246 Z" />
 </g>
 <g transform="translate(0.917969, 88.9453)" style="fill:#161413; fill-rule:evenodd; stroke:none; stroke-width:0.249066; stroke-linecap:butt; stroke-linejoin:miter; stroke-dasharray:none;" >
  <path d="M1.17578 6.0274 C1.07617 6.416 1.05664 6.4961 0.269531 6.4961 C0.099611 6.4961 0 6.4961 0 6.6953 C0 6.8047 0.089841 6.8047 0.269531 6.8047 C0.269531 6.8047 3.82617 6.8047 3.82617 6.8047 C5.40039 6.8047 6.57617 5.6289 6.57617 4.6524 C6.57617 3.9356 5.99805 3.3574 5.03125 3.2481 C6.06738 3.0586 7.11425 2.3213 7.11425 1.375 C7.11425 0.6377 6.45605 0 5.26074 0 C5.26074 0 1.91308 0 1.91308 0 C1.72363 0 1.62402 0 1.62402 0.1992 C1.62402 0.3086 1.71387 0.3086 1.90332 0.3086 C1.92285 0.3086 2.1123 0.3086 2.28223 0.3291 C2.46094 0.3486 2.55078 0.3584 2.55078 0.4883 C2.55078 0.5283 2.54101 0.5586 2.51074 0.6777 C2.51074 0.6777 1.17578 6.0274 1.17578 6.0274 Z M2.68066 3.1582 C2.68066 3.1582 3.29785 0.6875 3.29785 0.6875 C3.38769 0.3389 3.40723 0.3086 3.83594 0.3086 C3.83594 0.3086 5.12109 0.3086 5.12109 0.3086 C5.99805 0.3086 6.20703 0.8965 6.20703 1.335 C6.20703 2.2119 5.35058 3.1582 4.13476 3.1582 C4.13476 3.1582 2.68066 3.1582 2.68066 3.1582 Z M2.23242 6.4961 C2.09277 6.4961 2.07226 6.4961 2.01269 6.4863 C1.91308 6.4756 1.88379 6.4658 1.88379 6.3867 C1.88379 6.3565 1.88379 6.3369 1.93359 6.1572 C1.93359 6.1572 2.62109 3.3779 2.62109 3.3779 C2.62109 3.3779 4.50391 3.3779 4.50391 3.3779 C5.45996 3.3779 5.64941 4.1152 5.64941 4.543 C5.64941 5.5293 4.76269 6.4961 3.58691 6.4961 C3.58691 6.4961 2.23242 6.4961 2.23242 6.4961 Z" />
 </g>
 <g transform="translate(105.498, 88.7266)" style="fill:#161413; fill-rule:evenodd; stroke:none; stroke-width:0.249066; stroke-linecap:butt; stroke-linejoin:miter; stroke-dasharray:none;" >
  <path d="M7.073 0.0996 C7.073 0.0693 7.054 0 6.964 0 C6.935 0 6.924 0.0097 6.815 0.1191 C6.815 0.1191 6.117 0.8867 6.117 0.8867 C6.027 0.747 5.569 0 4.463 0 C2.241 0 0 2.2011 0 4.5127 C0 6.1562 1.176 7.2422 2.7 7.2422 C3.566 7.2422 4.324 6.8437 4.852 6.3857 C5.778 5.5693 5.948 4.6621 5.948 4.6328 C5.948 4.5332 5.849 4.5332 5.828 4.5332 C5.769 4.5332 5.719 4.5527 5.698 4.6328 C5.609 4.9209 5.38 5.6289 4.692 6.206 C4.005 6.7646 3.377 6.9336 2.859 6.9336 C1.963 6.9336 0.906 6.416 0.906 4.8613 C0.906 4.2939 1.116 2.6797 2.112 1.5136 C2.72 0.8066 3.656 0.3086 4.543 0.3086 C5.56 0.3086 6.148 1.0761 6.148 2.2314 C6.148 2.6298 6.117 2.6396 6.117 2.7392 C6.117 2.8388 6.227 2.8388 6.267 2.8388 C6.397 2.8388 6.397 2.8193 6.446 2.6396 C6.446 2.6396 7.073 0.0996 7.073 0.0996 Z" />
 </g>
 <g transform="translate(62.8984, 162.695)" style="fill:#161413; fill-rule:evenodd; stroke:none; stroke-width:0.249066; stroke-linecap:butt; stroke-linejoin:miter; stroke-dasharray:none;" >
  <path d="M1.1856 6.028 C1.086 6.416 1.0664 6.496 0.2793 6.496 C0.1094 6.496 0 6.496 0 6.686 C0 6.805 0.0899 6.805 0.2793 6.805 C0.2793 6.805 3.5762 6.805 3.5762 6.805 C5.6485 6.805 7.6114 4.702 7.6114 2.521 C7.6114 1.117 6.7647 0 5.2705 0 C5.2705 0 1.9229 0 1.9229 0 C1.7334 0 1.6241 0 1.6241 0.19 C1.6241 0.309 1.7139 0.309 1.9131 0.309 C2.042 0.309 2.2217 0.32 2.3409 0.329 C2.501 0.349 2.5606 0.379 2.5606 0.489 C2.5606 0.529 2.5508 0.559 2.5205 0.678 C2.5205 0.678 1.1856 6.028 1.1856 6.028 Z M3.3379 0.688 C3.4268 0.339 3.4473 0.309 3.876 0.309 C3.876 0.309 4.9414 0.309 4.9414 0.309 C5.918 0.309 6.7452 0.837 6.7452 2.153 C6.7452 2.641 6.5459 4.275 5.6983 5.37 C5.4102 5.739 4.6231 6.496 3.3975 6.496 C3.3975 6.496 2.2715 6.496 2.2715 6.496 C2.1319 6.496 2.1123 6.496 2.0528 6.487 C1.9532 6.476 1.9229 6.466 1.9229 6.387 C1.9229 6.357 1.9229 6.337 1.9727 6.158 C1.9727 6.158 3.3379 0.688 3.3379 0.688 Z" />
 </g>
 <g transform="translate(93.1484, 68.4453)" style="fill:#161413; fill-rule:evenodd; stroke:none; stroke-width:0.249066; stroke-linecap:butt; stroke-linejoin:miter; stroke-dasharray:none;" >
  <path d="M2.6202 3.6563 C2.6202 3.6563 4.3135 3.6563 4.3135 3.6563 C5.7286 3.6563 7.1136 2.6201 7.1136 1.5049 C7.1136 0.7373 6.4561 0 5.1504 0 C5.1504 0 1.9229 0 1.9229 0 C1.7334 0 1.6241 0 1.6241 0.1895 C1.6241 0.3086 1.7139 0.3086 1.9131 0.3086 C2.042 0.3086 2.2217 0.3193 2.3409 0.3291 C2.501 0.3486 2.5606 0.3789 2.5606 0.4883 C2.5606 0.5283 2.5508 0.5586 2.5205 0.6777 C2.5205 0.6777 1.1856 6.0274 1.1856 6.0274 C1.086 6.416 1.0664 6.4961 0.2793 6.4961 C0.1094 6.4961 0 6.4961 0 6.6856 C0 6.8047 0.1192 6.8047 0.1495 6.8047 C0.1495 6.8047 2.7002 6.8047 2.7002 6.8047 C2.7696 6.8047 2.8995 6.8047 2.8995 6.6055 C2.8995 6.4961 2.8096 6.4961 2.6202 6.4961 C2.252 6.4961 1.9727 6.4961 1.9727 6.3164 C1.9727 6.2568 1.9922 6.207 2.003 6.1475 C2.003 6.1475 2.6202 3.6563 2.6202 3.6563 Z M3.3379 0.6875 C3.4268 0.3389 3.4473 0.3086 3.876 0.3086 C3.876 0.3086 4.8321 0.3086 4.8321 0.3086 C5.6592 0.3086 6.1866 0.5781 6.1866 1.2656 C6.1866 1.6543 5.9873 2.5107 5.5987 2.8692 C5.1006 3.3174 4.503 3.3975 4.0645 3.3975 C4.0645 3.3975 2.6602 3.3975 2.6602 3.3975 C2.6602 3.3975 3.3379 0.6875 3.3379 0.6875 Z" />
 </g>
 <g transform="translate(75.4883, 81.9766)" style="fill:#161413; fill-rule:evenodd; stroke:none; stroke-width:0.249066; stroke-linecap:butt; stroke-linejoin:miter; stroke-dasharray:none;" >
  <path d="M3.875 6.9638 C5.4199 6.3759 6.8838 4.6025 6.8838 2.6797 C6.8838 1.0761 5.8281 0 4.3437 0 C2.1914 0 0 2.2617 0 4.583 C0 6.2363 1.1152 7.2422 2.5508 7.2422 C2.7998 7.2422 3.1377 7.2031 3.5263 7.0927 C3.4863 7.7109 3.4863 7.7304 3.4863 7.8603 C3.4863 8.1787 3.4863 8.956 4.3135 8.956 C5.499 8.956 5.9775 7.1328 5.9775 7.0234 C5.9775 6.9541 5.9082 6.9238 5.8681 6.9238 C5.7881 6.9238 5.7685 6.9736 5.748 7.0332 C5.5088 7.7412 4.9316 7.9902 4.583 7.9902 C4.124 7.9902 3.9746 7.7207 3.875 6.9638 Z M1.9922 6.8838 C1.2148 6.5752 0.8769 5.7978 0.8769 4.9013 C0.8769 4.2138 1.1357 2.7988 1.8926 1.7236 C2.6201 0.707 3.5566 0.249 4.2842 0.249 C5.2803 0.249 6.0078 1.0263 6.0078 2.3613 C6.0078 3.3574 5.499 5.6884 3.8252 6.625 C3.7754 6.2763 3.6758 5.5488 2.9492 5.5488 C2.4209 5.5488 1.9326 6.0468 1.9326 6.5654 C1.9326 6.7646 1.9922 6.874 1.9922 6.8838 Z M2.6103 6.9931 C2.4707 6.9931 2.1513 6.9931 2.1513 6.5654 C2.1513 6.167 2.5303 5.7685 2.9492 5.7685 C3.3672 5.7685 3.5566 6.0068 3.5566 6.6152 C3.5566 6.7646 3.5469 6.7744 3.4472 6.8144 C3.1875 6.9238 2.8887 6.9931 2.6103 6.9931 Z" />
 </g>
 <g transform="translate(55.9629, 90.2217)" style="fill:none; stroke:#161413; stroke-width:0.249066; stroke-linecap:butt; stroke-linejoin:miter; stroke-dasharray:none;" >
  <path d="M0 0 C0 0 0 4.251 0 4.251 " />
 </g>
 <g transform="translate(56.8135, 90.2217)" style="fill:none; stroke:#161413; stroke-width:0.249066; stroke-linecap:butt; stroke-linejoin:miter; stroke-dasharray:none;" >
  <path d="M0 0 C0 0 0 4.251 0 4.251 " />
 </g>
 <g transform="translate(57.6631, 90.2217)" style="fill:none; stroke:#161413; stroke-width:0.249066; stroke-linecap:butt; stroke-linejoin:miter; stroke-dasharray:none;" >
  <path d="M0 0 C0 0 0 4.251 0 4.251 " />
 </g>
 <g transform="translate(76.6553, 127.372)" style="fill:none; stroke:#161413; stroke-width:0.249066; stroke-linecap:butt; stroke-linejoin:miter; stroke-dasharray:none;" >
  <path d="M3.6855 2.126 C3.6855 2.126 0 0 0 0 " />
 </g>
 <g transform="translate(76.2305, 128.106)" style="fill:none; stroke:#161413; stroke-width:0.249066; stroke-linecap:butt; stroke-linejoin:miter; stroke-dasharray:none;" >
  <path d="M3.6855 2.126 C3.6855 2.126 0 0 0 0 " />
 </g>
 <g transform="translate(75.8057, 128.844)" style="fill:none; stroke:#161413; stroke-width:0.249066; stroke-linecap:butt; stroke-linejoin:miter; stroke-dasharray:none;" >
  <path d="M3.6845 2.125 C3.6845 2.125 0 0 0 0 " />
 </g>
 <g transform="translate(34.1357, 128.844)" style="fill:none; stroke:#161413; stroke-width:0.249066; stroke-linecap:butt; stroke-linejoin:miter; stroke-dasharray:none;" >
  <path d="M0 2.125 C0 2.125 3.6856 0 3.6856 0 " />
 </g>
 <g transform="translate(33.7109, 128.106)" style="fill:none; stroke:#161413; stroke-width:0.249066; stroke-linecap:butt; stroke-linejoin:miter; stroke-dasharray:none;" >
  <path d="M0 2.126 C0 2.126 3.6846 0 3.6846 0 " />
 </g>
 <g transform="translate(33.2852, 127.372)" style="fill:none; stroke:#161413; stroke-width:0.249066; stroke-linecap:butt; stroke-linejoin:miter; stroke-dasharray:none;" >
  <path d="M0 2.126 C0 2.126 3.6855 0 3.6855 0 " />
 </g>
 <g transform="translate(69.3789, 125.72)" style="fill:none; stroke:#161413; stroke-width:0.249066; stroke-linecap:butt; stroke-linejoin:miter; stroke-dasharray:none;" >
  <path d="M3.9912 1.47 C3.9912 1.47 0 0 0 0 " />
 </g>
 <g transform="translate(69.085, 126.519)" style="fill:none; stroke:#161413; stroke-width:0.249066; stroke-linecap:butt; stroke-linejoin:miter; stroke-dasharray:none;" >
  <path d="M3.9902 1.468 C3.9902 1.468 0 0 0 0 " />
 </g>
 <g transform="translate(54.6162, 83.2363)" style="fill:none; stroke:#161413; stroke-width:0.249066; stroke-linecap:butt; stroke-linejoin:miter; stroke-dasharray:none;" >
  <path d="M0 0 C0 0 0.7227 4.1934 0.7227 4.1934 " />
 </g>
 <g transform="translate(55.4521, 83.0918)" style="fill:none; stroke:#161413; stroke-width:0.249066; stroke-linecap:butt; stroke-linejoin:miter; stroke-dasharray:none;" >
  <path d="M0 0 C0 0 0.7227 4.1924 0.7227 4.1924 " />
 </g>
 <g transform="translate(89.667, 81.3486)" style="fill:none; stroke:#161413; stroke-width:0.249066; stroke-linecap:butt; stroke-linejoin:miter; stroke-dasharray:none;" >
  <path d="M2.8057 3.1914 C2.8057 3.1914 0 0 0 0 " />
 </g>
 <g transform="translate(91.8066, 88.0186)" style="fill:none; stroke:#161413; stroke-width:0.249066; stroke-linecap:butt; stroke-linejoin:miter; stroke-dasharray:none;" >
  <path d="M1.3614 0 C1.3614 0 0 4.0253 0 4.0253 " />
 </g>
 <g transform="translate(95.832, 84.8438)" style="fill:none; stroke:#161413; stroke-width:0.249066; stroke-linecap:butt; stroke-linejoin:miter; stroke-dasharray:none;" >
  <path d="M0 0.833 C0 0.833 4.167 0 4.167 0 " />
 </g>
</svg>
