<?xml version="1.0" encoding="iso-8859-1"?>
<!-- Generator: Adobe Illustrator 23.0.0, SVG Export Plug-In . SVG Version: 6.00 Build 0)  -->
<svg xmlns="http://www.w3.org/2000/svg" xmlns:xlink="http://www.w3.org/1999/xlink" version="1.1" id="Layer_1" x="0px" y="0px" viewBox="0 0 64 64" style="enable-background:new 0 0 64 64;" xml:space="preserve">
<title>Barcode Scanner</title>
<g id="surface1">
	<g>
		<path style="fill:#B6B6EF;" d="M61,25.15c-0.129-0.344-0.436-0.59-0.8-0.64l-20-1.82l-7.36-18c-0.203-0.478-0.755-0.7-1.233-0.497    c-0.224,0.095-0.402,0.273-0.497,0.497l-7.36,18L3.7,24.5c-0.517,0.051-0.894,0.511-0.843,1.028    c0.023,0.236,0.135,0.455,0.313,0.612l15.09,13.2l-4.64,19c-0.079,0.377,0.064,0.766,0.37,1c0.309,0.179,0.691,0.179,1,0    l16.9-10.46l16.9,10.46c0.309,0.179,0.691,0.179,1,0c0.306-0.234,0.449-0.623,0.37-1l-4.64-19l15.09-13.2    C60.932,25.922,61.087,25.529,61,25.15z"/>
	</g>
	<g>
		<path style="fill:#A1A1E2;" d="M61,25.15c-0.129-0.344-0.436-0.59-0.8-0.64l-20-1.82l-7.36-18C32.711,4.333,32.38,4.088,32,4.07    V48.9l16.82,10.41c0.309,0.179,0.691,0.179,1,0c0.319-0.224,0.466-0.622,0.37-1l-4.64-19l15.09-13.2    C60.941,25.891,61.083,25.513,61,25.15z"/>
	</g>
	<g>
		<path style="fill:#8D6C9F;" d="M63,24.69c-0.123-0.382-0.461-0.653-0.86-0.69l-21.42-1.94L32.85,2.77    c-0.21-0.511-0.794-0.755-1.305-0.545C31.298,2.327,31.102,2.523,31,2.77l-7.87,19.29L1.76,24    c-0.55,0.048-0.957,0.533-0.909,1.083c0.023,0.258,0.144,0.497,0.339,0.667l16.13,14.1l-5,20.26c-0.077,0.379,0.071,0.768,0.38,1    c0.338,0.229,0.782,0.229,1.12,0L31.92,50L50,61.21c0.468,0.293,1.085,0.15,1.378-0.319c0.144-0.23,0.188-0.508,0.122-0.771    l-5-20.26l16.13-14.1C62.963,25.514,63.11,25.089,63,24.69z M44.75,38.75c-0.284,0.248-0.403,0.635-0.31,1L49,58.22L32.45,48    c-0.322-0.199-0.728-0.199-1.05,0L14.89,58.22l4.52-18.48c0.093-0.365-0.026-0.752-0.31-1l-14.83-13L23.92,24    c0.371-0.036,0.69-0.275,0.83-0.62L31.92,5.8l7.18,17.58c0.14,0.345,0.46,0.584,0.83,0.62l19.65,1.79L44.75,38.75z"/>
	</g>
</g>
<path style="fill:#8D6C9F;" d="M41.943,29.237c-0.649-0.349-1.439-0.311-2.053,0.099l-1.894,1.263  c0.003-0.155,0.007-0.311-0.01-0.465c-0.208-1.889-1.876-3.272-3.764-3.134h-6.544c-1.421,0.008-2.655,0.846-3.266,2.057  c-0.436-0.092-0.896-0.052-1.307,0.154l-2,1C20.428,30.55,20,31.243,20,32v1c0,0.758,0.428,1.45,1.105,1.789l2,1  C23.388,35.93,23.694,36,24,36v1.266c-0.009,0.174-0.006,0.349,0.01,0.524c0.174,1.836,1.724,3.217,3.532,3.217  c0.074,0,0.148-0.002,0.222-0.007h6.482c0.146,0.007,0.293,0.006,0.424-0.004c0.952-0.062,1.821-0.493,2.449-1.211  c0.583-0.666,0.883-1.508,0.874-2.386l1.897,1.265C40.226,38.888,40.612,39,41,39c0.323,0,0.648-0.078,0.943-0.236  C42.594,38.415,43,37.737,43,37v-6C43,30.262,42.594,29.584,41.943,29.237z"/>
<g>
	<path style="fill:#FFFFFF;" d="M34.31,29c0.84-0.092,1.596,0.514,1.688,1.354C36.01,30.459,36.01,30.565,36,30.67v6.66   c0.058,0.865-0.596,1.613-1.462,1.671c-0.076,0.005-0.152,0.005-0.228-0.001h-6.62c-0.852,0.08-1.608-0.546-1.688-1.398   c-0.009-0.09-0.009-0.181-0.002-0.272v-6.66c0.016-0.923,0.767-1.665,1.69-1.67H34.31z"/>
</g>
<g>
	<polygon style="fill:#FFFFFF;" points="41,31 41,37 38,35 38,33  "/>
</g>
<g>
	<polygon style="fill:#FFFFFF;" points="24,34 22,33 22,32 24,31  "/>
</g>
<g>
	<path style="fill:#8D6C9F;" d="M1,42c-0.552,0-1-0.447-1-1v-2c0-0.553,0.448-1,1-1s1,0.447,1,1v2C2,41.553,1.552,42,1,42z"/>
</g>
<g>
	<path style="fill:#8D6C9F;" d="M6,42c-0.552,0-1-0.447-1-1v-2c0-0.553,0.448-1,1-1s1,0.447,1,1v2C7,41.553,6.552,42,6,42z"/>
</g>
<g>
	<path style="fill:#8D6C9F;" d="M11,42c-0.552,0-1-0.447-1-1v-2c0-0.553,0.448-1,1-1s1,0.447,1,1v2C12,41.553,11.552,42,11,42z"/>
</g>
<g>
	<path style="fill:#8D6C9F;" d="M52,42c-0.553,0-1-0.447-1-1v-2c0-0.553,0.447-1,1-1s1,0.447,1,1v2C53,41.553,52.553,42,52,42z"/>
</g>
<g>
	<path style="fill:#8D6C9F;" d="M57,42c-0.553,0-1-0.447-1-1v-2c0-0.553,0.447-1,1-1s1,0.447,1,1v2C58,41.553,57.553,42,57,42z"/>
</g>
<g>
	<path style="fill:#8D6C9F;" d="M62,42c-0.553,0-1-0.447-1-1v-2c0-0.553,0.447-1,1-1s1,0.447,1,1v2C63,41.553,62.553,42,62,42z"/>
</g>
</svg>
